<mxfile host="app.diagrams.net" modified="2022-09-21T13:46:07.315Z" agent="5.0 (Windows NT 10.0; Win64; x64) AppleWebKit/537.36 (KHTML, like Gecko) Chrome/105.0.0.0 Safari/537.36" etag="F_79xDNapD17-7jLyXub" version="20.3.3" type="github">
  <diagram id="B57RgCANTXSBN9HxfwOy" name="Page-1">
    <mxGraphModel dx="1242" dy="654" grid="1" gridSize="10" guides="1" tooltips="1" connect="1" arrows="1" fold="1" page="1" pageScale="1" pageWidth="850" pageHeight="1100" math="0" shadow="0">
      <root>
        <mxCell id="0" />
        <mxCell id="1" parent="0" />
        <mxCell id="vu_Ny7wq7D0zx0u3BcrL-4" value="" style="shape=mxgraph.cisco.routers.router;sketch=0;html=1;pointerEvents=1;dashed=0;fillColor=#036897;strokeColor=#ffffff;strokeWidth=2;verticalLabelPosition=bottom;verticalAlign=top;align=center;outlineConnect=0;" vertex="1" parent="1">
          <mxGeometry x="330" y="70" width="78" height="53" as="geometry" />
        </mxCell>
        <mxCell id="vu_Ny7wq7D0zx0u3BcrL-5" value="" style="shape=mxgraph.cisco.routers.router;sketch=0;html=1;pointerEvents=1;dashed=0;fillColor=#036897;strokeColor=#ffffff;strokeWidth=2;verticalLabelPosition=bottom;verticalAlign=top;align=center;outlineConnect=0;" vertex="1" parent="1">
          <mxGeometry x="450" y="70" width="78" height="53" as="geometry" />
        </mxCell>
        <mxCell id="vu_Ny7wq7D0zx0u3BcrL-8" value="" style="shape=mxgraph.cisco.switches.workgroup_switch;sketch=0;html=1;pointerEvents=1;dashed=0;fillColor=#036897;strokeColor=#ffffff;strokeWidth=2;verticalLabelPosition=bottom;verticalAlign=top;align=center;outlineConnect=0;" vertex="1" parent="1">
          <mxGeometry x="301" y="220" width="101" height="50" as="geometry" />
        </mxCell>
        <mxCell id="vu_Ny7wq7D0zx0u3BcrL-9" value="" style="shape=mxgraph.cisco.switches.workgroup_switch;sketch=0;html=1;pointerEvents=1;dashed=0;fillColor=#036897;strokeColor=#ffffff;strokeWidth=2;verticalLabelPosition=bottom;verticalAlign=top;align=center;outlineConnect=0;" vertex="1" parent="1">
          <mxGeometry x="438.5" y="220" width="101" height="50" as="geometry" />
        </mxCell>
        <mxCell id="vu_Ny7wq7D0zx0u3BcrL-10" value="" style="shape=mxgraph.cisco.switches.workgroup_switch;sketch=0;html=1;pointerEvents=1;dashed=0;fillColor=#036897;strokeColor=#ffffff;strokeWidth=2;verticalLabelPosition=bottom;verticalAlign=top;align=center;outlineConnect=0;" vertex="1" parent="1">
          <mxGeometry x="240" y="360" width="101" height="50" as="geometry" />
        </mxCell>
        <mxCell id="vu_Ny7wq7D0zx0u3BcrL-11" value="" style="shape=mxgraph.cisco.switches.workgroup_switch;sketch=0;html=1;pointerEvents=1;dashed=0;fillColor=#036897;strokeColor=#ffffff;strokeWidth=2;verticalLabelPosition=bottom;verticalAlign=top;align=center;outlineConnect=0;" vertex="1" parent="1">
          <mxGeometry x="510" y="350" width="101" height="50" as="geometry" />
        </mxCell>
        <mxCell id="vu_Ny7wq7D0zx0u3BcrL-13" value="" style="endArrow=none;html=1;rounded=0;entryX=0.5;entryY=0.98;entryDx=0;entryDy=0;entryPerimeter=0;exitX=1;exitY=0;exitDx=0;exitDy=0;exitPerimeter=0;" edge="1" parent="1" source="vu_Ny7wq7D0zx0u3BcrL-10" target="vu_Ny7wq7D0zx0u3BcrL-8">
          <mxGeometry width="50" height="50" relative="1" as="geometry">
            <mxPoint x="290" y="310" as="sourcePoint" />
            <mxPoint x="340" y="260" as="targetPoint" />
          </mxGeometry>
        </mxCell>
        <mxCell id="vu_Ny7wq7D0zx0u3BcrL-14" value="" style="endArrow=none;html=1;rounded=0;entryX=0.5;entryY=0.98;entryDx=0;entryDy=0;entryPerimeter=0;" edge="1" parent="1" source="vu_Ny7wq7D0zx0u3BcrL-10" target="vu_Ny7wq7D0zx0u3BcrL-9">
          <mxGeometry width="50" height="50" relative="1" as="geometry">
            <mxPoint x="300" y="360" as="sourcePoint" />
            <mxPoint x="350" y="270" as="targetPoint" />
          </mxGeometry>
        </mxCell>
        <mxCell id="vu_Ny7wq7D0zx0u3BcrL-15" value="" style="endArrow=none;html=1;rounded=0;entryX=0.5;entryY=0.98;entryDx=0;entryDy=0;entryPerimeter=0;exitX=0;exitY=0.5;exitDx=0;exitDy=0;exitPerimeter=0;" edge="1" parent="1" source="vu_Ny7wq7D0zx0u3BcrL-11" target="vu_Ny7wq7D0zx0u3BcrL-8">
          <mxGeometry width="50" height="50" relative="1" as="geometry">
            <mxPoint x="590.0000000000001" y="380" as="sourcePoint" />
            <mxPoint x="340" y="270" as="targetPoint" />
          </mxGeometry>
        </mxCell>
        <mxCell id="vu_Ny7wq7D0zx0u3BcrL-16" value="" style="endArrow=none;html=1;rounded=0;entryX=0.5;entryY=0.98;entryDx=0;entryDy=0;entryPerimeter=0;exitX=0;exitY=0.5;exitDx=0;exitDy=0;exitPerimeter=0;" edge="1" parent="1" source="vu_Ny7wq7D0zx0u3BcrL-11" target="vu_Ny7wq7D0zx0u3BcrL-9">
          <mxGeometry width="50" height="50" relative="1" as="geometry">
            <mxPoint x="660.07" y="360" as="sourcePoint" />
            <mxPoint x="479.99592592592586" y="250" as="targetPoint" />
          </mxGeometry>
        </mxCell>
        <mxCell id="vu_Ny7wq7D0zx0u3BcrL-17" value="" style="endArrow=none;html=1;rounded=0;exitX=1;exitY=0;exitDx=0;exitDy=0;exitPerimeter=0;entryX=0.12;entryY=0.9;entryDx=0;entryDy=0;entryPerimeter=0;" edge="1" parent="1" source="vu_Ny7wq7D0zx0u3BcrL-8" target="vu_Ny7wq7D0zx0u3BcrL-5">
          <mxGeometry width="50" height="50" relative="1" as="geometry">
            <mxPoint x="408" y="210" as="sourcePoint" />
            <mxPoint x="458" y="160" as="targetPoint" />
          </mxGeometry>
        </mxCell>
        <mxCell id="vu_Ny7wq7D0zx0u3BcrL-18" value="" style="endArrow=none;html=1;rounded=0;entryX=0.88;entryY=0.9;entryDx=0;entryDy=0;entryPerimeter=0;" edge="1" parent="1" source="vu_Ny7wq7D0zx0u3BcrL-9" target="vu_Ny7wq7D0zx0u3BcrL-4">
          <mxGeometry width="50" height="50" relative="1" as="geometry">
            <mxPoint x="412" y="230" as="sourcePoint" />
            <mxPoint x="469.3599999999999" y="127.70000000000005" as="targetPoint" />
          </mxGeometry>
        </mxCell>
        <mxCell id="vu_Ny7wq7D0zx0u3BcrL-19" value="" style="endArrow=none;html=1;rounded=0;exitX=1;exitY=0;exitDx=0;exitDy=0;exitPerimeter=0;entryX=0.5;entryY=1;entryDx=0;entryDy=0;entryPerimeter=0;" edge="1" parent="1" source="vu_Ny7wq7D0zx0u3BcrL-8" target="vu_Ny7wq7D0zx0u3BcrL-4">
          <mxGeometry width="50" height="50" relative="1" as="geometry">
            <mxPoint x="412" y="230" as="sourcePoint" />
            <mxPoint x="469.3599999999999" y="127.70000000000005" as="targetPoint" />
          </mxGeometry>
        </mxCell>
        <mxCell id="vu_Ny7wq7D0zx0u3BcrL-20" value="" style="endArrow=none;html=1;rounded=0;entryX=0.5;entryY=1;entryDx=0;entryDy=0;entryPerimeter=0;" edge="1" parent="1" target="vu_Ny7wq7D0zx0u3BcrL-5">
          <mxGeometry width="50" height="50" relative="1" as="geometry">
            <mxPoint x="470" y="220" as="sourcePoint" />
            <mxPoint x="408.6400000000001" y="127.70000000000005" as="targetPoint" />
          </mxGeometry>
        </mxCell>
        <mxCell id="vu_Ny7wq7D0zx0u3BcrL-21" value="AP&#39;s &amp;amp; End devices" style="whiteSpace=wrap;html=1;" vertex="1" parent="1">
          <mxGeometry x="365" y="530" width="120" height="60" as="geometry" />
        </mxCell>
        <mxCell id="vu_Ny7wq7D0zx0u3BcrL-22" value="" style="endArrow=none;html=1;rounded=0;exitX=0.5;exitY=0;exitDx=0;exitDy=0;" edge="1" parent="1" source="vu_Ny7wq7D0zx0u3BcrL-21" target="vu_Ny7wq7D0zx0u3BcrL-10">
          <mxGeometry width="50" height="50" relative="1" as="geometry">
            <mxPoint x="380" y="360" as="sourcePoint" />
            <mxPoint x="430" y="310" as="targetPoint" />
          </mxGeometry>
        </mxCell>
        <mxCell id="vu_Ny7wq7D0zx0u3BcrL-23" value="" style="endArrow=none;html=1;rounded=0;exitX=0.5;exitY=0;exitDx=0;exitDy=0;entryX=0.5;entryY=0.98;entryDx=0;entryDy=0;entryPerimeter=0;" edge="1" parent="1" source="vu_Ny7wq7D0zx0u3BcrL-21" target="vu_Ny7wq7D0zx0u3BcrL-11">
          <mxGeometry width="50" height="50" relative="1" as="geometry">
            <mxPoint x="435" y="540" as="sourcePoint" />
            <mxPoint x="323.6896551724137" y="420" as="targetPoint" />
          </mxGeometry>
        </mxCell>
      </root>
    </mxGraphModel>
  </diagram>
</mxfile>
